<svg width="32" height="32" viewBox="0 0 32 32" fill="none" xmlns="http://www.w3.org/2000/svg">
<path fill-rule="evenodd" clip-rule="evenodd" d="M12.743 6.00001H20.1044C20.1808 6.00001 20.2568 6.0049 20.3324 6.01468C23.3288 6.22422 25.6555 8.71093 25.6657 11.7147V20.2867C25.6547 23.4495 23.0845 26.0059 19.9217 26H12.743C9.5797 26.0059 7.00932 23.4487 6.99902 20.2853V11.7147C7.00932 8.55137 9.5797 5.99411 12.743 6.00001Z" stroke="#0A0017" stroke-width="2" stroke-linecap="round" stroke-linejoin="round"/>
<path d="M25.6657 12.7146C26.218 12.7146 26.6657 12.2669 26.6657 11.7146C26.6657 11.1624 26.218 10.7146 25.6657 10.7146V12.7146ZM20.3324 11.7146H19.3324C19.3324 12.2669 19.7801 12.7146 20.3324 12.7146V11.7146ZM21.3324 6.01465C21.3324 5.46236 20.8846 5.01465 20.3324 5.01465C19.7801 5.01465 19.3324 5.46236 19.3324 6.01465H21.3324ZM14.999 21.6666C15.5513 21.6666 15.999 21.2189 15.999 20.6666C15.999 20.1144 15.5513 19.6666 14.999 19.6666V21.6666ZM10.999 19.6666C10.4467 19.6666 9.99902 20.1144 9.99902 20.6666C9.99902 21.2189 10.4467 21.6666 10.999 21.6666V19.6666ZM20.3324 17.6666C20.8846 17.6666 21.3324 17.2189 21.3324 16.6666C21.3324 16.1144 20.8846 15.6666 20.3324 15.6666V17.6666ZM10.999 15.6666C10.4467 15.6666 9.99902 16.1144 9.99902 16.6666C9.99902 17.2189 10.4467 17.6666 10.999 17.6666V15.6666ZM25.6657 10.7146H20.3324V12.7146H25.6657V10.7146ZM21.3324 11.7146V6.01465H19.3324V11.7146H21.3324ZM14.999 19.6666H10.999V21.6666H14.999V19.6666ZM20.3324 15.6666H10.999V17.6666H20.3324V15.6666Z" fill="#0A0017"/>
</svg>
