<svg width="32" height="32" viewBox="0 0 32 32" fill="none" xmlns="http://www.w3.org/2000/svg">
<path fill-rule="evenodd" clip-rule="evenodd" d="M11.3302 22.7678C11.3389 23.9508 10.633 25.022 9.54254 25.4807C8.45212 25.9394 7.1927 25.6949 6.35315 24.8615C5.51361 24.0281 5.25985 22.7705 5.71054 21.6767C6.16122 20.583 7.22728 19.8692 8.41024 19.8692C9.18185 19.8663 9.92298 20.1701 10.4706 20.7137C11.0182 21.2573 11.3274 21.9962 11.3302 22.7678V22.7678Z" stroke="#0A0017" stroke-width="2" stroke-linecap="round" stroke-linejoin="round"/>
<path fill-rule="evenodd" clip-rule="evenodd" d="M25.2424 22.7678C25.251 23.9508 24.5451 25.022 23.4547 25.4807C22.3642 25.9394 21.1048 25.6949 20.2653 24.8615C19.4257 24.0281 19.172 22.7705 19.6226 21.6767C20.0733 20.583 21.1394 19.8692 22.3224 19.8692C23.094 19.8663 23.8351 20.1701 24.3827 20.7137C24.9303 21.2573 25.2395 21.9962 25.2424 22.7678Z" stroke="#0A0017" stroke-width="2" stroke-linecap="round" stroke-linejoin="round"/>
<path d="M19.0596 23.7681C19.6119 23.7681 20.0596 23.3203 20.0596 22.7681C20.0596 22.2158 19.6119 21.7681 19.0596 21.7681V23.7681ZM11.3263 21.7681C10.774 21.7681 10.3263 22.2158 10.3263 22.7681C10.3263 23.3203 10.774 23.7681 11.3263 23.7681V21.7681ZM18.0596 22.7681C18.0596 23.3203 18.5074 23.7681 19.0596 23.7681C19.6119 23.7681 20.0596 23.3203 20.0596 22.7681H18.0596ZM20.0596 15.7454C20.0596 15.1931 19.6119 14.7454 19.0596 14.7454C18.5074 14.7454 18.0596 15.1931 18.0596 15.7454H20.0596ZM19.0596 21.7681C18.5074 21.7681 18.0596 22.2158 18.0596 22.7681C18.0596 23.3203 18.5074 23.7681 19.0596 23.7681V21.7681ZM19.401 23.7681C19.9533 23.7681 20.401 23.3203 20.401 22.7681C20.401 22.2158 19.9533 21.7681 19.401 21.7681V23.7681ZM25.2367 21.7681C24.6844 21.7704 24.2386 22.2201 24.241 22.7723C24.2433 23.3246 24.693 23.7704 25.2453 23.7681L25.2367 21.7681ZM28.3343 19.6467L29.3343 19.642C29.334 19.583 29.3285 19.5242 29.3179 19.4662L28.3343 19.6467ZM28.6019 15.5649C28.5022 15.0217 27.981 14.6621 27.4378 14.7618C26.8946 14.8615 26.535 15.3827 26.6347 15.9259L28.6019 15.5649ZM19.0583 8.50273C18.506 8.50273 18.0583 8.95044 18.0583 9.50273C18.0583 10.055 18.506 10.5027 19.0583 10.5027V8.50273ZM23.953 9.50273V10.5027C23.9596 10.5027 23.9662 10.5027 23.9727 10.5025L23.953 9.50273ZM26.1679 10.4007L26.8784 9.69697V9.69697L26.1679 10.4007ZM27.045 12.6241L26.0454 12.5949C26.0434 12.665 26.0487 12.7352 26.0614 12.8043L27.045 12.6241ZM26.6334 15.9256C26.7329 16.4689 27.254 16.8286 27.7972 16.729C28.3405 16.6295 28.7001 16.1084 28.6006 15.5651L26.6334 15.9256ZM20.057 9.50273C20.057 8.95044 19.6093 8.50273 19.057 8.50273C18.5047 8.50273 18.057 8.95044 18.057 9.50273H20.057ZM18.057 15.7454C18.057 16.2977 18.5047 16.7454 19.057 16.7454C19.6093 16.7454 20.057 16.2977 20.057 15.7454H18.057ZM18.057 9.50273C18.057 10.055 18.5047 10.5027 19.057 10.5027C19.6093 10.5027 20.057 10.055 20.057 9.50273H18.057ZM19.057 8.43606H20.057L20.0569 8.42871L19.057 8.43606ZM17.601 7.00006V8.00008L17.6075 8.00004L17.601 7.00006ZM4.46098 7.00006L4.45172 8.00006H4.46098V7.00006ZM3.43411 7.41433L2.73355 6.70074L2.73355 6.70074L3.43411 7.41433ZM3.00098 8.4334L2.00098 8.42422V8.4334H3.00098ZM3.00098 21.3334H2.00093L2.00102 21.3426L3.00098 21.3334ZM3.43411 22.3525L4.13467 21.6389L4.13466 21.6389L3.43411 22.3525ZM4.46098 22.7667V21.7667L4.45172 21.7668L4.46098 22.7667ZM5.49031 23.7667C6.04259 23.7667 6.49031 23.319 6.49031 22.7667C6.49031 22.2144 6.04259 21.7667 5.49031 21.7667V23.7667ZM19.0596 14.7454C18.5074 14.7454 18.0596 15.1931 18.0596 15.7454C18.0596 16.2977 18.5074 16.7454 19.0596 16.7454V14.7454ZM27.6196 16.7454C28.1719 16.7454 28.6196 16.2977 28.6196 15.7454C28.6196 15.1931 28.1719 14.7454 27.6196 14.7454V16.7454ZM19.0596 21.7681H11.3263V23.7681H19.0596V21.7681ZM20.0596 22.7681V15.7454H18.0596V22.7681H20.0596ZM19.0596 23.7681H19.401V21.7681H19.0596V23.7681ZM25.2453 23.7681C26.3347 23.7634 27.3777 23.326 28.1446 22.5522L26.724 21.1443C26.3306 21.5413 25.7956 21.7657 25.2367 21.7681L25.2453 23.7681ZM28.1446 22.5522C28.9115 21.7783 29.3395 20.7315 29.3343 19.642L27.3343 19.6515C27.337 20.2103 27.1174 20.7474 26.724 21.1443L28.1446 22.5522ZM29.3179 19.4662L28.6019 15.5649L26.6347 15.9259L27.3507 19.8272L29.3179 19.4662ZM19.0583 10.5027H23.953V8.50273H19.0583V10.5027ZM23.9727 10.5025C24.5292 10.4915 25.0658 10.7091 25.4575 11.1045L26.8784 9.69697C26.1014 8.91266 25.037 8.4811 23.9332 8.50292L23.9727 10.5025ZM25.4575 11.1045C25.8492 11.4999 26.0617 12.0385 26.0454 12.5949L28.0445 12.6533C28.0768 11.5498 27.6553 10.4813 26.8784 9.69697L25.4575 11.1045ZM26.0614 12.8043L26.6334 15.9256L28.6006 15.5651L28.0286 12.4438L26.0614 12.8043ZM18.057 9.50273V15.7454H20.057V9.50273H18.057ZM20.057 9.50273V8.43606H18.057V9.50273H20.057ZM20.0569 8.42871C20.047 7.07832 18.9449 5.99133 17.5945 6.00008L17.6075 8.00004C17.854 7.99844 18.0552 8.19689 18.057 8.44341L20.0569 8.42871ZM17.601 6.00006H4.46098V8.00006H17.601V6.00006ZM4.47024 6.0001C3.82133 5.9941 3.19662 6.24613 2.73355 6.70074L4.13467 8.12793C4.21921 8.04493 4.33325 7.99892 4.45172 8.00002L4.47024 6.0001ZM2.73355 6.70074C2.27047 7.15536 2.00697 7.77532 2.00102 8.42422L4.00093 8.44257C4.00202 8.3241 4.05013 8.21092 4.13467 8.12793L2.73355 6.70074ZM2.00098 8.4334V21.3334H4.00098V8.4334H2.00098ZM2.00102 21.3426C2.00697 21.9915 2.27047 22.6114 2.73355 23.066L4.13466 21.6389C4.05013 21.5559 4.00202 21.4427 4.00093 21.3242L2.00102 21.3426ZM2.73354 23.066C3.19662 23.5207 3.82133 23.7727 4.47024 23.7667L4.45172 21.7668C4.33325 21.7679 4.21921 21.7219 4.13467 21.6389L2.73354 23.066ZM4.46098 23.7667H5.49031V21.7667H4.46098V23.7667ZM19.0596 16.7454H27.6196V14.7454H19.0596V16.7454Z" fill="#0A0017"/>
</svg>
