<svg width="32" height="32" viewBox="0 0 32 32" fill="none" xmlns="http://www.w3.org/2000/svg">
<path fill-rule="evenodd" clip-rule="evenodd" d="M6.99987 21.1874C6.94933 23.9779 9.16942 26.2815 11.9599 26.334H20.7065C23.497 26.2815 25.7171 23.9779 25.6665 21.1874L25.0839 14.9367C24.936 12.5802 23.287 10.5872 20.9999 10.0007C20.5233 9.86207 20.0296 9.79115 19.5332 9.79004H13.1332C12.6369 9.79115 12.1431 9.86207 11.6665 10.0007C9.38083 10.5874 7.7327 12.5789 7.58387 14.934L6.99987 21.1874Z" stroke="#0A0017" stroke-width="2" stroke-linecap="round" stroke-linejoin="round"/>
<path d="M21.0003 12.1848V9.49016C20.95 6.96239 18.8615 4.95324 16.3337 5.00083C13.8058 4.95324 11.7173 6.96239 11.667 9.49016V12.1835" stroke="#0A0017" stroke-width="2" stroke-linecap="round" stroke-linejoin="round"/>
</svg>
