<svg width="32" height="32" viewBox="0 0 32 32" fill="none" xmlns="http://www.w3.org/2000/svg">
<path fill-rule="evenodd" clip-rule="evenodd" d="M22.9338 6.8371L25.0218 8.49977C25.2234 8.68954 25.3371 8.95461 25.3356 9.23151C25.3341 9.50841 25.2175 9.77222 25.0138 9.95977L23.4271 11.8584L18.0285 18.2971C17.934 18.4053 17.8082 18.4813 17.6685 18.5144L14.8685 19.1491C14.5011 19.1675 14.1813 18.9005 14.1338 18.5358V15.6584C14.1433 15.5197 14.1992 15.3882 14.2925 15.2851L19.5911 9.29444L21.4098 7.12244C21.7696 6.65081 22.4277 6.52759 22.9338 6.8371Z" stroke="white" stroke-width="2" stroke-linecap="round" stroke-linejoin="round"/>
<path d="M15.3777 10.1582C15.93 10.1582 16.3777 9.71049 16.3777 9.1582C16.3777 8.60592 15.93 8.1582 15.3777 8.1582V10.1582ZM11.6443 9.1582L11.6443 8.1582L11.6419 8.15821L11.6443 9.1582ZM6.667 14.1582L7.66701 14.1582L7.667 14.1561L6.667 14.1582ZM6.667 21.6582L7.667 21.6603V21.6582H6.667ZM11.6443 26.6582L11.6419 27.6582H11.6443V26.6582ZM19.111 26.6582L19.111 27.6582L19.1134 27.6582L19.111 26.6582ZM24.0883 21.6582L23.0883 21.6582L23.0883 21.6603L24.0883 21.6582ZM25.0883 16.6582C25.0883 16.1059 24.6406 15.6582 24.0883 15.6582C23.5361 15.6582 23.0883 16.1059 23.0883 16.6582H25.0883ZM20.5153 8.91262C20.3046 8.40212 19.7199 8.15913 19.2094 8.36987C18.6989 8.58061 18.4559 9.16529 18.6667 9.67579L20.5153 8.91262ZM23.6429 12.8293C24.1821 12.7101 24.5226 12.1763 24.4034 11.637C24.2842 11.0978 23.7504 10.7572 23.2112 10.8764L23.6429 12.8293ZM10.4003 21.9089C9.84805 21.9089 9.40034 22.3566 9.40034 22.9089C9.40034 23.4612 9.84805 23.9089 10.4003 23.9089V21.9089ZM20.3563 23.9089C20.9086 23.9089 21.3563 23.4612 21.3563 22.9089C21.3563 22.3566 20.9086 21.9089 20.3563 21.9089V23.9089ZM15.3777 8.1582H11.6443V10.1582H15.3777V8.1582ZM11.6419 8.15821C8.33474 8.16615 5.65993 10.8531 5.66701 14.1603L7.667 14.1561C7.66229 11.9532 9.44391 10.1635 11.6467 10.1582L11.6419 8.15821ZM5.667 14.1582V21.6582H7.667V14.1582H5.667ZM5.66701 21.6561C5.65993 24.9633 8.33474 27.6503 11.6419 27.6582L11.6467 25.6582C9.44391 25.6529 7.66229 23.8632 7.667 21.6603L5.66701 21.6561ZM11.6443 27.6582H19.111V25.6582H11.6443V27.6582ZM19.1134 27.6582C22.4206 27.6503 25.0954 24.9633 25.0883 21.6561L23.0883 21.6603C23.0931 23.8632 21.3114 25.6529 19.1086 25.6582L19.1134 27.6582ZM25.0883 21.6582V16.6582H23.0883V21.6582H25.0883ZM18.6667 9.67579C18.9265 10.3053 19.4568 11.1975 20.2491 11.8869C21.0596 12.5922 22.2242 13.1429 23.6429 12.8293L23.2112 10.8764C22.5912 11.0135 22.0524 10.8049 21.5619 10.3781C21.0532 9.93553 20.6848 9.32311 20.5153 8.91262L18.6667 9.67579ZM10.4003 23.9089H20.3563V21.9089H10.4003V23.9089Z" fill="white"/>
</svg>
