<svg width="32" height="32" viewBox="0 0 32 32" fill="none" xmlns="http://www.w3.org/2000/svg">
<path fill-rule="evenodd" clip-rule="evenodd" d="M10.999 12V17.356C10.999 20.3015 13.3868 22.6893 16.3324 22.6893C19.2779 22.6893 21.6657 20.3015 21.6657 17.356V12H10.999Z" stroke="#0A0017" stroke-width="2" stroke-linecap="round" stroke-linejoin="round"/>
<path d="M12.6657 12C12.6657 12.5523 13.1134 13 13.6657 13C14.218 13 14.6657 12.5523 14.6657 12H12.6657ZM17.999 12C17.999 12.5523 18.4467 13 18.999 13C19.5513 13 19.999 12.5523 19.999 12H17.999ZM17.3324 17.356C17.3324 16.8037 16.8846 16.356 16.3324 16.356C15.7801 16.356 15.3324 16.8037 15.3324 17.356H17.3324ZM15.3324 22.712C15.3324 23.2643 15.7801 23.712 16.3324 23.712C16.8846 23.712 17.3324 23.2643 17.3324 22.712H15.3324ZM6.99902 16.356C6.44674 16.356 5.99902 16.8037 5.99902 17.356C5.99902 17.9083 6.44674 18.356 6.99902 18.356V16.356ZM10.999 18.356C11.5513 18.356 11.999 17.9083 11.999 17.356C11.999 16.8037 11.5513 16.356 10.999 16.356V18.356ZM9.04175 8.61119C8.65249 8.2194 8.01933 8.21735 7.62754 8.60661C7.23576 8.99586 7.23371 9.62903 7.62296 10.0208L9.04175 8.61119ZM10.2896 12.7048C10.6789 13.0966 11.312 13.0987 11.7038 12.7094C12.0956 12.3201 12.0977 11.687 11.7084 11.2952L10.2896 12.7048ZM13.2703 21.8483C13.66 21.4569 13.6586 20.8238 13.2673 20.4341C12.8759 20.0444 12.2428 20.0457 11.8531 20.4371L13.2703 21.8483ZM9.02509 23.2771C8.63539 23.6684 8.63673 24.3016 9.02808 24.6913C9.41943 25.081 10.0526 25.0796 10.4423 24.6883L9.02509 23.2771ZM25.6657 18.356C26.218 18.356 26.6657 17.9083 26.6657 17.356C26.6657 16.8037 26.218 16.356 25.6657 16.356V18.356ZM21.6657 16.356C21.1134 16.356 20.6657 16.8037 20.6657 17.356C20.6657 17.9083 21.1134 18.356 21.6657 18.356V16.356ZM25.0418 10.0208C25.431 9.62902 25.429 8.99586 25.0372 8.60661C24.6454 8.21735 24.0122 8.2194 23.623 8.61119L25.0418 10.0208ZM20.9563 11.2952C20.567 11.687 20.5691 12.3201 20.9609 12.7094C21.3527 13.0987 21.9858 13.0966 22.3751 12.7048L20.9563 11.2952ZM20.8116 20.4371C20.4219 20.0457 19.7888 20.0444 19.3974 20.4341C19.0061 20.8238 19.0047 21.4569 19.3944 21.8483L20.8116 20.4371ZM22.2224 24.6883C22.6121 25.0796 23.2453 25.081 23.6366 24.6913C24.028 24.3016 24.0293 23.6684 23.6396 23.2771L22.2224 24.6883ZM14.6657 12V10.6667H12.6657V12H14.6657ZM14.6657 10.6667C14.6657 9.74619 15.4119 9 16.3324 9V7C14.3073 7 12.6657 8.64162 12.6657 10.6667H14.6657ZM16.3324 9C17.2528 9 17.999 9.74619 17.999 10.6667H19.999C19.999 8.64162 18.3574 7 16.3324 7V9ZM17.999 10.6667V12H19.999V10.6667H17.999ZM15.3324 17.356V22.712H17.3324V17.356H15.3324ZM6.99902 18.356H10.999V16.356H6.99902V18.356ZM7.62296 10.0208L10.2896 12.7048L11.7084 11.2952L9.04175 8.61119L7.62296 10.0208ZM11.8531 20.4371L9.02509 23.2771L10.4423 24.6883L13.2703 21.8483L11.8531 20.4371ZM25.6657 16.356H21.6657V18.356H25.6657V16.356ZM23.623 8.61119L20.9563 11.2952L22.3751 12.7048L25.0418 10.0208L23.623 8.61119ZM19.3944 21.8483L22.2224 24.6883L23.6396 23.2771L20.8116 20.4371L19.3944 21.8483Z" fill="#0A0017"/>
</svg>
