<svg width="32" height="32" viewBox="0 0 32 32" fill="none" xmlns="http://www.w3.org/2000/svg">
<path fill-rule="evenodd" clip-rule="evenodd" d="M6.66699 16.0006C6.66731 11.5479 9.81292 7.71551 14.1801 6.84713C18.5473 5.97875 22.9197 8.31623 24.6234 12.4301C26.3271 16.5439 24.8876 21.2884 21.1852 23.7619C17.4828 26.2355 12.5487 25.7493 9.40033 22.6006C7.65003 20.8501 6.66681 18.476 6.66699 16.0006Z" fill="#6E677B"/>
<path d="M11.9698 18.9686C11.6768 19.2614 11.6767 19.7363 11.9696 20.0293C12.2624 20.3222 12.7373 20.3223 13.0302 20.0295L11.9698 18.9686ZM16.5302 16.5308C16.8232 16.238 16.8233 15.7631 16.5304 15.4701C16.2376 15.1772 15.7627 15.1771 15.4698 15.4699L16.5302 16.5308ZM15.4695 15.4702C15.1767 15.7632 15.1769 16.2381 15.4699 16.5309C15.7629 16.8237 16.2378 16.8235 16.5305 16.5305L15.4695 15.4702ZM20.0292 13.0292C20.322 12.7361 20.3218 12.2613 20.0288 11.9685C19.7358 11.6757 19.2609 11.6759 18.9681 11.9689L20.0292 13.0292ZM16.5302 15.4699C16.2373 15.1771 15.7624 15.1772 15.4696 15.4701C15.1767 15.7631 15.1768 16.238 15.4698 16.5308L16.5302 15.4699ZM18.9698 20.0295C19.2627 20.3223 19.7376 20.3222 20.0304 20.0293C20.3233 19.7363 20.3232 19.2614 20.0302 18.9686L18.9698 20.0295ZM15.4696 16.5306C15.7624 16.8235 16.2373 16.8236 16.5302 16.5308C16.8232 16.238 16.8233 15.7631 16.5304 15.4701L15.4696 16.5306ZM13.0304 11.9688C12.7376 11.6758 12.2627 11.6758 11.9698 11.9686C11.6768 12.2614 11.6767 12.7363 11.9696 13.0293L13.0304 11.9688ZM13.0302 20.0295L16.5302 16.5308L15.4698 15.4699L11.9698 18.9686L13.0302 20.0295ZM16.5305 16.5305L20.0292 13.0292L18.9681 11.9689L15.4695 15.4702L16.5305 16.5305ZM15.4698 16.5308L18.9698 20.0295L20.0302 18.9686L16.5302 15.4699L15.4698 16.5308ZM16.5304 15.4701L13.0304 11.9688L11.9696 13.0293L15.4696 16.5306L16.5304 15.4701Z" fill="#FFFFFB"/>
</svg>
