<svg width="32" height="32" viewBox="0 0 32 32" fill="none" xmlns="http://www.w3.org/2000/svg">
<path d="M25.0006 12.3721C25.0203 12.924 25.4837 13.3555 26.0356 13.3358C26.5875 13.3162 27.019 12.8528 26.9994 12.3009L25.0006 12.3721ZM20.2853 7.00315V8.00315C20.2965 8.00315 20.3076 8.00296 20.3187 8.00259L20.2853 7.00315ZM11.7147 7.00315L11.6813 8.00259C11.6924 8.00296 11.7035 8.00315 11.7147 8.00315V7.00315ZM5.00063 12.3009C4.98098 12.8528 5.41248 13.3162 5.96441 13.3358C6.51635 13.3555 6.97971 12.924 6.99937 12.3721L5.00063 12.3009ZM27 12.3366C27 11.7843 26.5523 11.3366 26 11.3366C25.4477 11.3366 25 11.7843 25 12.3366H27ZM26 20.3366L26.9994 20.3722C26.9998 20.3603 27 20.3485 27 20.3366H26ZM20.2853 25.6699L20.3187 24.6705C20.3076 24.6701 20.2965 24.6699 20.2853 24.6699V25.6699ZM11.7147 25.6699V24.6699C11.7035 24.6699 11.6924 24.6701 11.6813 24.6705L11.7147 25.6699ZM6 20.3366H5C5 20.3485 5.00021 20.3603 5.00063 20.3722L6 20.3366ZM7 12.3366C7 11.7843 6.55228 11.3366 6 11.3366C5.44772 11.3366 5 11.7843 5 12.3366H7ZM26.5044 13.2001C26.9813 12.9215 27.142 12.3091 26.8635 11.8322C26.5849 11.3553 25.9725 11.1945 25.4956 11.4731L26.5044 13.2001ZM18.9813 16.4366L18.4769 15.5731L18.4686 15.578L18.9813 16.4366ZM13.0187 16.4366L13.5314 15.578L13.5231 15.5731L13.0187 16.4366ZM6.5044 11.4731C6.02752 11.1945 5.4151 11.3553 5.13653 11.8322C4.85796 12.3091 5.01872 12.9215 5.4956 13.2001L6.5044 11.4731ZM26.9994 12.3009C26.8712 8.70049 23.8526 5.88336 20.2519 6.00371L20.3187 8.00259C22.8172 7.91908 24.9117 9.87382 25.0006 12.3721L26.9994 12.3009ZM20.2853 6.00315H11.7147V8.00315H20.2853V6.00315ZM11.7481 6.00371C8.14739 5.88336 5.12884 8.70049 5.00063 12.3009L6.99937 12.3721C7.08833 9.87382 9.18283 7.91908 11.6813 8.00259L11.7481 6.00371ZM25 12.3366V20.3366H27V12.3366H25ZM25.0006 20.301C24.9117 22.7992 22.8172 24.754 20.3187 24.6705L20.2519 26.6694C23.8526 26.7897 26.8712 23.9726 26.9994 20.3722L25.0006 20.301ZM20.2853 24.6699H11.7147V26.6699H20.2853V24.6699ZM11.6813 24.6705C9.18283 24.754 7.08833 22.7992 6.99937 20.301L5.00063 20.3722C5.12884 23.9726 8.14739 26.7897 11.7481 26.6694L11.6813 24.6705ZM7 20.3366V12.3366H5V20.3366H7ZM25.4956 11.4731L18.4769 15.5731L19.4857 17.3001L26.5044 13.2001L25.4956 11.4731ZM18.4686 15.578C16.9481 16.4861 15.0519 16.4861 13.5314 15.578L12.5059 17.2951C14.658 18.5804 17.342 18.5804 19.4941 17.2951L18.4686 15.578ZM13.5231 15.5731L6.5044 11.4731L5.4956 13.2001L12.5143 17.3001L13.5231 15.5731Z" fill="#0A0017"/>
</svg>
