<svg width="32" height="32" viewBox="0 0 32 32" fill="none" xmlns="http://www.w3.org/2000/svg">
<path fill-rule="evenodd" clip-rule="evenodd" d="M6.99902 16.3336C6.99934 11.8809 10.1449 8.04852 14.5121 7.18014C18.8793 6.31176 23.2517 8.64924 24.9555 12.7631C26.6592 16.8769 25.2196 21.6214 21.5172 24.0949C17.8148 26.5685 12.8807 26.0823 9.73236 22.9336C7.98206 21.1831 6.99884 18.809 6.99902 16.3336Z" stroke="#C73944" stroke-width="2" stroke-linecap="round" stroke-linejoin="round"/>
<path d="M12.1251 19.1248C11.7345 19.5152 11.7343 20.1484 12.1248 20.539C12.5152 20.9296 13.1484 20.9297 13.539 20.5393L12.1251 19.1248ZM17.039 17.0406C17.4296 16.6502 17.4297 16.017 17.0393 15.6264C16.6488 15.2358 16.0157 15.2357 15.6251 15.6261L17.039 17.0406ZM15.6247 15.6265C15.2343 16.0172 15.2345 16.6504 15.6252 17.0407C16.0159 17.4311 16.649 17.4309 17.0394 17.0402L15.6247 15.6265ZM20.5381 13.5389C20.9284 13.1482 20.9282 12.515 20.5375 12.1247C20.1469 11.7343 19.5137 11.7345 19.1233 12.1252L20.5381 13.5389ZM17.039 15.6261C16.6484 15.2357 16.0152 15.2358 15.6248 15.6264C15.2343 16.017 15.2345 16.6502 15.6251 17.0406L17.039 15.6261ZM19.1251 20.5393C19.5157 20.9297 20.1488 20.9296 20.5393 20.539C20.9297 20.1484 20.9296 19.5152 20.539 19.1248L19.1251 20.5393ZM15.6248 17.0403C16.0152 17.4309 16.6484 17.4311 17.039 17.0406C17.4296 16.6502 17.4297 16.017 17.0393 15.6264L15.6248 17.0403ZM13.5393 12.1251C13.1488 11.7345 12.5157 11.7343 12.1251 12.1248C11.7345 12.5152 11.7343 13.1484 12.1248 13.539L13.5393 12.1251ZM13.539 20.5393L17.039 17.0406L15.6251 15.6261L12.1251 19.1248L13.539 20.5393ZM17.0394 17.0402L20.5381 13.5389L19.1233 12.1252L15.6247 15.6265L17.0394 17.0402ZM15.6251 17.0406L19.1251 20.5393L20.539 19.1248L17.039 15.6261L15.6251 17.0406ZM17.0393 15.6264L13.5393 12.1251L12.1248 13.539L15.6248 17.0403L17.0393 15.6264Z" fill="#C73944"/>
</svg>
