<svg width="32" height="32" viewBox="0 0 32 32" fill="none" xmlns="http://www.w3.org/2000/svg">
<path fill-rule="evenodd" clip-rule="evenodd" d="M6.99902 15V17.6667C6.99902 22.0849 10.5807 25.6667 14.999 25.6667H17.6657C22.084 25.6667 25.6657 22.0849 25.6657 17.6667V15C25.6657 10.5817 22.084 7 17.6657 7H14.999C10.5807 7 6.99902 10.5817 6.99902 15Z" stroke="#0A0017" stroke-width="2" stroke-linecap="round" stroke-linejoin="round"/>
<path d="M16.332 17.3333C16.8843 17.3333 17.332 16.8856 17.332 16.3333C17.332 15.781 16.8843 15.3333 16.332 15.3333V17.3333ZM13.332 15.3333C12.7797 15.3333 12.332 15.781 12.332 16.3333C12.332 16.8856 12.7797 17.3333 13.332 17.3333V15.3333ZM17.332 16.3333C17.332 15.781 16.8843 15.3333 16.332 15.3333C15.7797 15.3333 15.332 15.781 15.332 16.3333H17.332ZM15.332 19.5333C15.332 20.0856 15.7797 20.5333 16.332 20.5333C16.8843 20.5333 17.332 20.0856 17.332 19.5333H15.332ZM15.532 15.7333C15.2007 16.1752 15.2902 16.802 15.732 17.1333C16.1739 17.4647 16.8007 17.3752 17.132 16.9333L15.532 15.7333ZM21.132 11.6C21.4634 11.1582 21.3739 10.5314 20.932 10.2C20.4902 9.86863 19.8634 9.95817 19.532 10.4L21.132 11.6ZM15.532 16.9333C15.8634 17.3752 16.4902 17.4647 16.932 17.1333C17.3739 16.802 17.4634 16.1752 17.132 15.7333L15.532 16.9333ZM13.132 10.4C12.8007 9.95817 12.1739 9.86863 11.732 10.2C11.2902 10.5314 11.2007 11.1582 11.532 11.6L13.132 10.4ZM16.332 15.3333C15.7797 15.3333 15.332 15.781 15.332 16.3333C15.332 16.8856 15.7797 17.3333 16.332 17.3333V15.3333ZM19.332 17.3333C19.8843 17.3333 20.332 16.8856 20.332 16.3333C20.332 15.781 19.8843 15.3333 19.332 15.3333V17.3333ZM17.332 19.5333C17.332 18.9811 16.8843 18.5333 16.332 18.5333C15.7797 18.5333 15.332 18.9811 15.332 19.5333H17.332ZM15.332 21.6667C15.332 22.219 15.7797 22.6667 16.332 22.6667C16.8843 22.6667 17.332 22.219 17.332 21.6667H15.332ZM16.332 18.5333C15.7797 18.5333 15.332 18.981 15.332 19.5333C15.332 20.0856 15.7797 20.5333 16.332 20.5333V18.5333ZM19.332 20.5333C19.8843 20.5333 20.332 20.0856 20.332 19.5333C20.332 18.981 19.8843 18.5333 19.332 18.5333V20.5333ZM16.332 20.5333C16.8843 20.5333 17.332 20.0856 17.332 19.5333C17.332 18.981 16.8843 18.5333 16.332 18.5333V20.5333ZM13.332 18.5333C12.7797 18.5333 12.332 18.981 12.332 19.5333C12.332 20.0856 12.7797 20.5333 13.332 20.5333V18.5333ZM16.332 15.3333H13.332V17.3333H16.332V15.3333ZM15.332 16.3333V19.5333H17.332V16.3333H15.332ZM17.132 16.9333L21.132 11.6L19.532 10.4L15.532 15.7333L17.132 16.9333ZM17.132 15.7333L13.132 10.4L11.532 11.6L15.532 16.9333L17.132 15.7333ZM16.332 17.3333H19.332V15.3333H16.332V17.3333ZM15.332 19.5333V21.6667H17.332V19.5333H15.332ZM16.332 20.5333H19.332V18.5333H16.332V20.5333ZM16.332 18.5333H13.332V20.5333H16.332V18.5333Z" fill="#0A0017"/>
</svg>
