<svg width="32" height="32" viewBox="0 0 32 32" fill="none" xmlns="http://www.w3.org/2000/svg">
<path fill-rule="evenodd" clip-rule="evenodd" d="M5.33337 14.353V20.941C5.34806 23.3809 7.33751 25.347 9.77737 25.333H20.888C22.06 25.3401 23.1867 24.8814 24.0203 24.0577C24.854 23.234 25.3263 22.1129 25.3334 20.941V14.353C25.3187 11.9132 23.3292 9.94698 20.8894 9.96101H9.77737C7.33751 9.94698 5.34806 11.9132 5.33337 14.353Z" stroke="#537172" stroke-width="2" stroke-linecap="round" stroke-linejoin="round"/>
<path fill-rule="evenodd" clip-rule="evenodd" d="M15.3334 20.9412C13.519 20.9199 12.0633 19.4355 12.0775 17.621C12.0917 15.8065 13.5703 14.3451 15.3848 14.3521C17.1993 14.3591 18.6666 15.832 18.6667 17.6465C18.6618 18.5255 18.3078 19.3665 17.6826 19.9844C17.0575 20.6023 16.2124 20.9465 15.3334 20.9412Z" stroke="#537172" stroke-width="2" stroke-linecap="round" stroke-linejoin="round"/>
<path d="M12 9.96121V8.86254C12.0035 8.27659 12.2397 7.71604 12.6565 7.3042C13.0733 6.89237 13.6367 6.663 14.2227 6.66654H16.444C17.03 6.663 17.5933 6.89237 18.0102 7.3042C18.427 7.71604 18.6631 8.27659 18.6667 8.86254V9.96121" stroke="#537172" stroke-width="2" stroke-linecap="round" stroke-linejoin="round"/>
</svg>
