<svg width="136" height="19" viewBox="0 0 136 19" fill="none" xmlns="http://www.w3.org/2000/svg">
<path d="M0.917815 15.1026C0.749876 15.0031 0.625477 14.8041 0.544618 14.5055C0.463759 14.207 0.423329 13.8991 0.423329 13.5819C0.423329 13.4326 0.525958 13.3206 0.731217 13.246C0.936475 13.1713 1.18216 13.134 1.46828 13.134C1.71086 13.134 1.86947 13.0843 1.94411 12.9847C2.01875 12.879 2.05607 12.7328 2.05607 12.5462V3.53352C2.05607 3.34692 2.01875 3.20386 1.94411 3.10434C1.86947 2.9986 1.71086 2.94573 1.46828 2.94573C0.771646 2.94573 0.423329 2.78401 0.423329 2.46058C0.423329 2.1558 0.463759 1.85724 0.544618 1.5649C0.625477 1.26635 0.749876 1.07042 0.917815 0.977118C1.73885 1.05798 2.88332 1.09841 4.35123 1.09841C4.89236 1.09841 5.57034 1.07353 6.38515 1.02377C7.19997 0.974008 7.73799 0.949128 7.99923 0.949128C8.67099 0.949128 9.28054 1.06109 9.8279 1.28501C10.3753 1.5027 10.8169 1.79504 11.1527 2.16202C11.4886 2.529 11.7468 2.94262 11.9271 3.4029C12.1075 3.85696 12.1977 4.32967 12.1977 4.82105C12.1977 5.32486 12.0391 5.81935 11.7219 6.30451C11.4109 6.78966 10.9724 7.1442 10.4064 7.36812C11.0283 7.56094 11.5539 7.8595 11.9831 8.26379C12.4123 8.66187 12.7171 9.09105 12.8974 9.55132C13.0778 10.0054 13.168 10.4812 13.168 10.9788C13.168 11.5013 13.0561 12.0051 12.8321 12.4902C12.6144 12.9754 12.3003 13.4139 11.8898 13.8058C11.4793 14.1976 10.9444 14.5117 10.2851 14.7481C9.63197 14.9845 8.90423 15.1026 8.10186 15.1026C7.95258 15.1026 7.38346 15.084 6.39448 15.0466C5.40551 15.0155 4.55027 15 3.82875 15C3.07614 15 2.10583 15.0342 0.917815 15.1026ZM7.81263 8.33843H4.21128V12.9941C4.21128 13.2366 4.25482 13.3579 4.3419 13.3579H8.27913C9.15614 13.3579 9.84656 13.1154 10.3504 12.6302C10.8542 12.145 11.1061 11.5728 11.1061 10.9135C11.1061 10.2169 10.82 9.61352 10.2477 9.10349C9.67551 8.59345 8.8638 8.33843 7.81263 8.33843ZM4.21128 6.85497H7.81263C8.52793 6.85497 9.09394 6.65904 9.51068 6.26719C9.92742 5.87533 10.1358 5.41505 10.1358 4.88636C10.1358 4.28924 9.95541 3.76988 9.59465 3.32826C9.23389 2.88664 8.73318 2.66584 8.09253 2.66584H4.21128V6.85497ZM24.0001 5.61409V12.4529C24.0001 12.6146 24.0032 12.7297 24.0094 12.7981C24.0156 12.8666 24.0312 12.9443 24.056 13.0314C24.0871 13.1122 24.1338 13.1682 24.196 13.1993C24.2644 13.2242 24.3546 13.2491 24.4666 13.274C24.5785 13.2926 24.7278 13.302 24.9144 13.302C25.1943 13.302 25.3716 13.3362 25.4462 13.4046C25.5271 13.473 25.5675 13.613 25.5675 13.8244C25.5675 14.1354 25.5302 14.4122 25.4555 14.6548C25.3871 14.8912 25.3218 15.0311 25.2596 15.0746C24.8055 15.0249 24.3857 15 24.0001 15C23.745 15 23.4776 15.0124 23.1977 15.0373C22.924 15.0622 22.7561 15.0746 22.6939 15.0746C22.4451 15.0746 22.2927 15 22.2367 14.8507C22.1869 14.7014 22.1621 14.3034 22.1621 13.6565C21.7267 14.1603 21.2011 14.5522 20.5853 14.8321C19.9757 15.112 19.3538 15.2519 18.7193 15.2519C18.259 15.2519 17.8268 15.1742 17.4225 15.0187C17.0244 14.8694 16.6636 14.6455 16.3402 14.3469C16.0167 14.0483 15.7617 13.6472 15.5751 13.1433C15.3885 12.6395 15.2952 12.0642 15.2952 11.4173V7.67601C15.2952 7.08511 15.1397 6.77722 14.8287 6.75234C14.779 6.74612 14.7074 6.7399 14.6141 6.73368C14.5271 6.72746 14.4555 6.72124 14.3996 6.71502C14.3498 6.7088 14.2876 6.70258 14.213 6.69636C14.1383 6.68392 14.0792 6.67459 14.0357 6.66837C13.9922 6.65593 13.9393 6.64349 13.8771 6.63105C13.8211 6.61239 13.7776 6.59373 13.7465 6.57507C13.7154 6.55642 13.6843 6.53465 13.6532 6.50977C13.6221 6.48489 13.6003 6.4569 13.5879 6.4258C13.5754 6.38848 13.5692 6.34805 13.5692 6.30451C13.5692 5.58299 13.6718 5.12894 13.8771 4.94234C14.4618 5.01076 14.9998 5.04497 15.4912 5.04497C15.8333 5.04497 16.1816 5.02942 16.5361 4.99832C16.8969 4.961 17.0835 4.94234 17.0959 4.94234C17.3074 4.94234 17.4131 5.16626 17.4131 5.61409V11.5293C17.4131 12.2135 17.5904 12.7266 17.9449 13.0687C18.2995 13.4108 18.7535 13.5819 19.3071 13.5819C19.7798 13.5819 20.2494 13.4575 20.7159 13.2087C21.1886 12.9599 21.5774 12.6209 21.8822 12.1917V7.67601C21.8822 7.08511 21.7267 6.77722 21.4157 6.75234C21.3659 6.74612 21.2944 6.7399 21.2011 6.73368C21.114 6.72746 21.0425 6.72124 20.9865 6.71502C20.9367 6.7088 20.8745 6.70258 20.7999 6.69636C20.7253 6.68392 20.6662 6.67459 20.6226 6.66837C20.5791 6.65593 20.5262 6.64349 20.464 6.63105C20.408 6.61239 20.3645 6.59373 20.3334 6.57507C20.3023 6.55642 20.2712 6.53465 20.2401 6.50977C20.209 6.48489 20.1872 6.4569 20.1748 6.4258C20.1623 6.38848 20.1561 6.34805 20.1561 6.30451C20.1561 5.57677 20.2588 5.12272 20.464 4.94234C21.0487 5.01076 21.5867 5.04497 22.0781 5.04497C22.4886 5.04497 22.9053 5.02942 23.3283 4.99832C23.7575 4.961 23.9783 4.94234 23.9907 4.94234C23.9969 4.94234 24.0001 5.16626 24.0001 5.61409ZM30.0272 7.30281L32.425 12.6395L34.5056 7.30281C34.5367 7.20951 34.5522 7.12554 34.5522 7.0509C34.5522 6.93272 34.5024 6.84564 34.4029 6.78966C34.3096 6.73368 34.2039 6.70258 34.0857 6.69636C33.9738 6.69014 33.868 6.65904 33.7685 6.60306C33.6752 6.54087 33.6285 6.44446 33.6285 6.31384V6.24853C33.7218 5.41505 33.8276 4.92679 33.9458 4.78373C34.5553 4.94545 35.2115 5.02631 35.9144 5.02631C36.6608 5.02631 37.3481 4.94545 37.9763 4.78373C38.2189 4.89569 38.3402 5.19114 38.3402 5.67007C38.3402 6.04949 38.2655 6.31695 38.1162 6.47245C37.967 6.62172 37.7057 6.69636 37.3325 6.69636C37.2454 6.69636 37.1677 6.70569 37.0993 6.72435C37.0309 6.74301 36.9749 6.76167 36.9313 6.78033C36.894 6.79899 36.8567 6.8332 36.8194 6.88296C36.7821 6.93272 36.7572 6.97315 36.7447 7.00425C36.7323 7.02913 36.7105 7.07578 36.6794 7.1442C36.6545 7.21262 36.6359 7.25927 36.6235 7.28415L32.8915 15.8863C32.5245 16.7012 32.086 17.2952 31.576 17.6684C31.0721 18.0478 30.4533 18.2375 29.7193 18.2375C29.1346 18.2375 28.6308 18.1224 28.2079 17.8923C27.7849 17.6684 27.5734 17.4133 27.5734 17.1272C27.5734 16.7602 27.6045 16.5114 27.6667 16.3808C27.7289 16.2564 27.8409 16.1942 28.0026 16.1942C28.0648 16.1942 28.2794 16.2378 28.6464 16.3248C29.0196 16.4181 29.3648 16.4648 29.682 16.4648C29.825 16.4648 29.937 16.4586 30.0179 16.4461C30.0987 16.4399 30.1827 16.4088 30.2698 16.3528C30.3568 16.2969 30.4222 16.244 30.4657 16.1942C30.5092 16.1445 30.5777 16.0387 30.671 15.877C30.7643 15.7153 30.842 15.5629 30.9042 15.4198C30.9664 15.283 31.0721 15.0591 31.2214 14.7481C31.3769 14.4309 31.5231 14.1323 31.6599 13.8524C31.4298 13.8524 31.2587 13.8338 31.1468 13.7964C31.0348 13.7529 30.9509 13.6658 30.8949 13.5352L27.9093 7.28415C27.9031 7.26549 27.8844 7.21884 27.8533 7.1442C27.8222 7.06956 27.8004 7.02291 27.788 7.00425C27.7756 6.97937 27.7476 6.94205 27.704 6.89229C27.6667 6.83631 27.6263 6.79899 27.5827 6.78033C27.5454 6.76167 27.4926 6.74301 27.4241 6.72435C27.3619 6.70569 27.2873 6.69636 27.2002 6.69636C26.827 6.69636 26.5658 6.62172 26.4165 6.47245C26.2672 6.31695 26.1926 6.04949 26.1926 5.67007C26.1926 5.19114 26.3139 4.89569 26.5565 4.78373C27.1225 4.94545 27.8098 5.02631 28.6184 5.02631C29.4394 5.02631 30.1578 4.94545 30.7736 4.78373C30.8918 4.92679 30.9975 5.41505 31.0908 6.24853V6.31384C31.0908 6.44446 31.0317 6.54087 30.9135 6.60306C30.7954 6.66526 30.6678 6.69947 30.531 6.70569C30.3942 6.71191 30.2667 6.74301 30.1485 6.79899C30.0303 6.84875 29.9712 6.93272 29.9712 7.0509C29.9712 7.15042 29.9899 7.23439 30.0272 7.30281ZM39.8796 15.1026C39.7117 15.0031 39.5873 14.8041 39.5064 14.5055C39.4255 14.207 39.3851 13.8991 39.3851 13.5819C39.3851 13.4326 39.4877 13.3206 39.693 13.246C39.8983 13.1713 40.1439 13.134 40.4301 13.134C40.6726 13.134 40.8312 13.0843 40.9059 12.9847C40.9805 12.879 41.0178 12.7328 41.0178 12.5462V3.53352C41.0178 3.34692 40.9805 3.20386 40.9059 3.10434C40.8312 2.9986 40.6726 2.94573 40.4301 2.94573C39.7334 2.94573 39.3851 2.78401 39.3851 2.46058C39.3851 2.1558 39.4255 1.85724 39.5064 1.5649C39.5873 1.26635 39.7117 1.07042 39.8796 0.977118C40.7006 1.05798 41.8451 1.09841 43.313 1.09841C43.8541 1.09841 44.5321 1.07353 45.3469 1.02377C46.1617 0.974008 46.6998 0.949128 46.961 0.949128C47.6328 0.949128 48.2423 1.06109 48.7897 1.28501C49.337 1.5027 49.7786 1.79504 50.1145 2.16202C50.4504 2.529 50.7085 2.94262 50.8889 3.4029C51.0693 3.85696 51.1595 4.32967 51.1595 4.82105C51.1595 5.32486 51.0009 5.81935 50.6836 6.30451C50.3727 6.78966 49.9341 7.1442 49.3681 7.36812C49.9901 7.56094 50.5157 7.8595 50.9449 8.26379C51.3741 8.66187 51.6788 9.09105 51.8592 9.55132C52.0396 10.0054 52.1298 10.4812 52.1298 10.9788C52.1298 11.5013 52.0178 12.0051 51.7939 12.4902C51.5762 12.9754 51.2621 13.4139 50.8516 13.8058C50.4411 14.1976 49.9062 14.5117 49.2468 14.7481C48.5937 14.9845 47.866 15.1026 47.0636 15.1026C46.9144 15.1026 46.3452 15.084 45.3563 15.0466C44.3673 15.0155 43.512 15 42.7905 15C42.0379 15 41.0676 15.0342 39.8796 15.1026ZM46.7744 8.33843H43.1731V12.9941C43.1731 13.2366 43.2166 13.3579 43.3037 13.3579H47.2409C48.1179 13.3579 48.8083 13.1154 49.3121 12.6302C49.816 12.145 50.0679 11.5728 50.0679 10.9135C50.0679 10.2169 49.7818 9.61352 49.2095 9.10349C48.6373 8.59345 47.8256 8.33843 46.7744 8.33843ZM43.1731 6.85497H46.7744C47.4897 6.85497 48.0557 6.65904 48.4725 6.26719C48.8892 5.87533 49.0976 5.41505 49.0976 4.88636C49.0976 4.28924 48.9172 3.76988 48.5564 3.32826C48.1957 2.88664 47.695 2.66584 47.0543 2.66584H43.1731V6.85497ZM56.7108 7.30281L59.1086 12.6395L61.1892 7.30281C61.2203 7.20951 61.2358 7.12554 61.2358 7.0509C61.2358 6.93272 61.186 6.84564 61.0865 6.78966C60.9932 6.73368 60.8875 6.70258 60.7693 6.69636C60.6573 6.69014 60.5516 6.65904 60.4521 6.60306C60.3588 6.54087 60.3121 6.44446 60.3121 6.31384V6.24853C60.4054 5.41505 60.5112 4.92679 60.6294 4.78373C61.2389 4.94545 61.8951 5.02631 62.598 5.02631C63.3444 5.02631 64.0317 4.94545 64.6599 4.78373C64.9025 4.89569 65.0238 5.19114 65.0238 5.67007C65.0238 6.04949 64.9491 6.31695 64.7998 6.47245C64.6506 6.62172 64.3893 6.69636 64.0161 6.69636C63.929 6.69636 63.8513 6.70569 63.7829 6.72435C63.7145 6.74301 63.6585 6.76167 63.6149 6.78033C63.5776 6.79899 63.5403 6.8332 63.503 6.88296C63.4657 6.93272 63.4408 6.97315 63.4283 7.00425C63.4159 7.02913 63.3941 7.07578 63.363 7.1442C63.3381 7.21262 63.3195 7.25927 63.307 7.28415L59.5751 15.8863C59.2081 16.7012 58.7696 17.2952 58.2596 17.6684C57.7557 18.0478 57.1369 18.2375 56.4029 18.2375C55.8182 18.2375 55.3144 18.1224 54.8914 17.8923C54.4685 17.6684 54.257 17.4133 54.257 17.1272C54.257 16.7602 54.2881 16.5114 54.3503 16.3808C54.4125 16.2564 54.5245 16.1942 54.6862 16.1942C54.7484 16.1942 54.963 16.2378 55.33 16.3248C55.7032 16.4181 56.0484 16.4648 56.3656 16.4648C56.5086 16.4648 56.6206 16.4586 56.7015 16.4461C56.7823 16.4399 56.8663 16.4088 56.9534 16.3528C57.0404 16.2969 57.1058 16.244 57.1493 16.1942C57.1928 16.1445 57.2613 16.0387 57.3545 15.877C57.4478 15.7153 57.5256 15.5629 57.5878 15.4198C57.65 15.283 57.7557 15.0591 57.905 14.7481C58.0605 14.4309 58.2067 14.1323 58.3435 13.8524C58.1134 13.8524 57.9423 13.8338 57.8304 13.7964C57.7184 13.7529 57.6344 13.6658 57.5785 13.5352L54.5929 7.28415C54.5867 7.26549 54.568 7.21884 54.5369 7.1442C54.5058 7.06956 54.484 7.02291 54.4716 7.00425C54.4592 6.97937 54.4312 6.94205 54.3876 6.89229C54.3503 6.83631 54.3099 6.79899 54.2663 6.78033C54.229 6.76167 54.1762 6.74301 54.1077 6.72435C54.0455 6.70569 53.9709 6.69636 53.8838 6.69636C53.5106 6.69636 53.2494 6.62172 53.1001 6.47245C52.9508 6.31695 52.8762 6.04949 52.8762 5.67007C52.8762 5.19114 52.9975 4.89569 53.2401 4.78373C53.8061 4.94545 54.4934 5.02631 55.302 5.02631C56.123 5.02631 56.8414 4.94545 57.4572 4.78373C57.5754 4.92679 57.6811 5.41505 57.7744 6.24853V6.31384C57.7744 6.44446 57.7153 6.54087 57.5971 6.60306C57.4789 6.66526 57.3514 6.69947 57.2146 6.70569C57.0778 6.71191 56.9503 6.74301 56.8321 6.79899C56.7139 6.84875 56.6548 6.93272 56.6548 7.0509C56.6548 7.15042 56.6735 7.23439 56.7108 7.30281ZM66.4792 0.977118C67.2567 1.05798 68.9921 1.09841 71.6853 1.09841C73.1035 1.09841 74.4345 1.05798 75.6785 0.977118C75.8154 1.07042 76.0797 1.67686 76.4716 2.79645C76.8634 3.91605 77.0594 4.58469 77.0594 4.80239C77.0594 4.84593 77.0345 4.90813 76.9847 4.98899C76.9412 5.06363 76.8696 5.1476 76.7701 5.2409C76.6768 5.32797 76.5369 5.40261 76.3503 5.46481C76.1699 5.52701 75.9615 5.55811 75.7252 5.55811C75.5946 5.55811 75.4453 5.37151 75.2773 4.99832C75.1156 4.62512 74.9508 4.19283 74.7829 3.70146C74.6149 3.20386 74.4967 2.89286 74.4283 2.76846C74.0178 2.76846 73.3305 2.77157 72.3664 2.77779C71.4085 2.77779 70.6497 2.77779 70.0899 2.77779C69.9966 2.77779 69.9251 2.79023 69.8753 2.81511C69.8256 2.83999 69.7945 2.86798 69.782 2.89908C69.7758 2.92396 69.7727 2.95817 69.7727 3.00171V6.81765C70.1334 6.69325 70.5782 6.58129 71.1069 6.48178C71.6418 6.38226 72.13 6.3325 72.5717 6.3325C73.5793 6.3325 74.0831 6.73057 74.0831 7.52673C74.0831 7.87504 73.9618 8.16738 73.7192 8.40374C73.4829 8.63388 73.203 8.74895 72.8795 8.74895C72.4379 8.17671 71.8595 7.89059 71.1442 7.89059C70.7026 7.89059 70.2454 7.94346 69.7727 8.0492V12.5276C69.7727 12.6209 69.7758 12.6955 69.782 12.7515C69.7945 12.8012 69.8162 12.8603 69.8473 12.9288C69.8846 12.9972 69.9468 13.05 70.0339 13.0874C70.121 13.1185 70.233 13.134 70.3698 13.134C70.6559 13.134 70.9016 13.1713 71.1069 13.246C71.3121 13.3206 71.4147 13.4326 71.4147 13.5819C71.4147 13.9053 71.3805 14.2163 71.3121 14.5148C71.2499 14.8072 71.1504 15.0031 71.0136 15.1026C70.1241 15.0342 69.3559 15 68.7091 15C68.0995 15 67.3562 15.0342 66.4792 15.1026C66.3113 15.0031 66.1869 14.8041 66.106 14.5055C66.0252 14.207 65.9847 13.8991 65.9847 13.5819C65.9847 13.4326 66.0874 13.3206 66.2926 13.246C66.4979 13.1713 66.7436 13.134 67.0297 13.134C67.2723 13.134 67.4309 13.0843 67.5055 12.9847C67.5801 12.879 67.6175 12.7328 67.6175 12.5462V3.53352C67.6175 3.34692 67.5801 3.20386 67.5055 3.10434C67.4309 2.9986 67.2723 2.94573 67.0297 2.94573C66.333 2.94573 65.9847 2.78401 65.9847 2.46058C65.9847 2.1558 66.0252 1.85724 66.106 1.5649C66.1869 1.26635 66.3113 1.07042 66.4792 0.977118ZM80.7913 5.85667V6.46312C81.0712 6.01528 81.488 5.62342 82.0415 5.28754C82.5951 4.95167 83.1238 4.78373 83.6276 4.78373C83.9573 4.78373 84.2714 4.83971 84.5699 4.95167C84.8685 5.05741 85.1266 5.25023 85.3443 5.53012C85.5682 5.81002 85.6802 6.15212 85.6802 6.55642C85.6802 7.66357 85.0924 8.21714 83.9169 8.21714C83.892 8.21714 83.8671 8.21403 83.8422 8.20781C83.8173 8.20159 83.7956 8.19226 83.7769 8.17982C83.7645 8.16738 83.752 8.15494 83.7396 8.1425C83.7271 8.13006 83.7147 8.1114 83.7023 8.08652C83.696 8.06164 83.6898 8.03987 83.6836 8.02121C83.6774 8.00255 83.6712 7.97456 83.6649 7.93724C83.6587 7.8937 83.6525 7.8595 83.6463 7.83462C83.6463 7.80974 83.6432 7.77553 83.637 7.73199C83.637 7.68223 83.6338 7.6418 83.6276 7.6107L83.5157 6.64038C83.3477 6.55953 83.1642 6.5191 82.9652 6.5191C82.6044 6.5191 82.2406 6.65282 81.8736 6.92028C81.5128 7.18152 81.2454 7.4863 81.0712 7.83462V12.5556C81.0712 12.6489 81.0743 12.7235 81.0806 12.7795C81.093 12.8292 81.1148 12.8883 81.1459 12.9567C81.1832 13.0252 81.2454 13.078 81.3325 13.1154C81.4195 13.1465 81.5315 13.162 81.6683 13.162C81.9047 13.162 82.1068 13.1993 82.2748 13.274C82.4427 13.3486 82.5267 13.4606 82.5267 13.6098C82.5267 13.9084 82.4769 14.2038 82.3774 14.4962C82.2779 14.7885 82.1317 14.9813 81.9389 15.0746C81.5035 15.0249 80.866 15 80.0263 15C79.1866 15 78.5428 15.0249 78.095 15.0746C77.8897 14.9813 77.7404 14.7916 77.6471 14.5055C77.5538 14.2132 77.5072 13.9146 77.5072 13.6098C77.5072 13.4606 77.5912 13.3486 77.7591 13.274C77.927 13.1993 78.1292 13.162 78.3655 13.162C78.6081 13.162 78.7667 13.1122 78.8414 13.0127C78.916 12.907 78.9533 12.7608 78.9533 12.5742V7.66668C78.9533 7.33702 78.8569 7.10377 78.6641 6.96693C78.4775 6.83009 78.1136 6.74923 77.5725 6.72435C77.4916 6.70569 77.4388 6.66526 77.4139 6.60306C77.3952 6.54087 77.3859 6.40714 77.3859 6.20188C77.3859 5.88466 77.4201 5.60476 77.4885 5.36218C77.557 5.11961 77.6254 4.97966 77.6938 4.94234C78.1354 5.01076 78.5677 5.04497 78.9906 5.04497C79.2519 5.04497 79.5256 5.02942 79.8117 4.99832C80.104 4.961 80.2595 4.94234 80.2782 4.94234C80.4959 4.94234 80.6358 4.99832 80.698 5.11028C80.7602 5.21602 80.7913 5.46481 80.7913 5.85667ZM88.5632 3.38424C88.4139 3.38424 88.2615 3.3718 88.106 3.34692C87.9505 3.31582 87.7794 3.26295 87.5928 3.18831C87.4125 3.11367 87.2632 2.99549 87.145 2.83377C87.033 2.67206 86.9771 2.47924 86.9771 2.25532C86.9771 1.49026 87.4933 1.10774 88.5258 1.10774C88.8182 1.10774 89.0639 1.14506 89.2629 1.2197C89.4682 1.29434 89.6174 1.39385 89.7107 1.51825C89.8103 1.64265 89.8787 1.76394 89.916 1.88212C89.9533 2.0003 89.972 2.12781 89.972 2.26465C89.972 2.54455 89.8849 2.77468 89.7107 2.95506C89.5366 3.13544 89.35 3.25362 89.1509 3.3096C88.9581 3.35936 88.7622 3.38424 88.5632 3.38424ZM90.1026 5.85667V12.6582C90.1026 12.7515 90.1057 12.8261 90.1119 12.8821C90.1244 12.9319 90.1461 12.991 90.1772 13.0594C90.2146 13.1278 90.2768 13.1807 90.3638 13.218C90.4509 13.2491 90.5629 13.2646 90.6997 13.2646C90.9361 13.2646 91.1382 13.302 91.3062 13.3766C91.4741 13.4512 91.5581 13.5632 91.5581 13.7125C91.5581 14.4402 91.4554 14.8943 91.2502 15.0746C90.6904 15.0249 90.0062 15 89.1976 15C88.3579 15 87.5742 15.0249 86.8465 15.0746C86.6412 14.888 86.5386 14.434 86.5386 13.7125C86.5386 13.5632 86.6225 13.4512 86.7905 13.3766C86.9584 13.302 87.1606 13.2646 87.3969 13.2646C87.6395 13.2646 87.7981 13.2149 87.8727 13.1154C87.9474 13.0096 87.9847 12.8634 87.9847 12.6768V7.66668C87.9847 7.33702 87.8883 7.10377 87.6955 6.96693C87.5089 6.83009 87.145 6.74923 86.6039 6.72435C86.523 6.70569 86.4701 6.66526 86.4453 6.60306C86.4266 6.54087 86.4173 6.40714 86.4173 6.20188C86.4173 5.88466 86.4515 5.60476 86.5199 5.36218C86.5883 5.11961 86.6567 4.97966 86.7252 4.94234C87.2041 5.01076 87.6675 5.04497 88.1153 5.04497C88.4139 5.04497 88.728 5.02942 89.0576 4.99832C89.3873 4.961 89.5615 4.94234 89.5801 4.94234C89.7978 4.94234 89.9378 4.99832 90 5.11028C90.0684 5.21602 90.1026 5.46481 90.1026 5.85667ZM101.858 9.48601C101.858 9.77213 101.784 9.99294 101.634 10.1484C101.491 10.2977 101.218 10.3724 100.813 10.3724H94.3757C94.4006 10.9384 94.5001 11.4266 94.6743 11.8372C94.8484 12.2477 95.0786 12.5711 95.3647 12.8075C95.6508 13.0376 95.9649 13.2087 96.307 13.3206C96.6491 13.4264 97.0223 13.4792 97.4266 13.4792C97.9926 13.4792 98.5711 13.3797 99.162 13.1807C99.7529 12.9816 100.288 12.7017 100.767 12.341C101.121 12.7577 101.299 13.1682 101.299 13.5725C101.299 13.84 101.121 14.1043 100.767 14.3656C100.412 14.6206 99.9332 14.8321 99.3299 15C98.7266 15.1679 98.0983 15.2519 97.4452 15.2519C96.9103 15.2519 96.4003 15.199 95.9151 15.0933C95.4362 14.9876 94.9635 14.8041 94.497 14.5428C94.0367 14.2754 93.6386 13.9395 93.3028 13.5352C92.9669 13.1309 92.6963 12.6115 92.4911 11.9771C92.2858 11.3427 92.1832 10.6243 92.1832 9.82189C92.1832 9.03818 92.3324 8.31977 92.631 7.66668C92.9296 7.01358 93.3245 6.48178 93.8159 6.07126C94.3073 5.65452 94.8546 5.33419 95.458 5.11028C96.0675 4.88636 96.6926 4.7744 97.3333 4.7744C97.806 4.7744 98.2601 4.83349 98.6955 4.95167C99.1309 5.06985 99.5414 5.25645 99.927 5.51146C100.313 5.76026 100.649 6.06815 100.935 6.43513C101.221 6.79588 101.445 7.2375 101.606 7.75998C101.774 8.28245 101.858 8.8578 101.858 9.48601ZM99.9737 8.92622C99.9177 8.06164 99.644 7.40544 99.1526 6.9576C98.6675 6.50355 98.0859 6.27652 97.4079 6.27652C96.6864 6.27652 96.0302 6.5191 95.4393 7.00425C94.8546 7.48319 94.5188 8.12384 94.4317 8.92622H99.9737ZM114.286 15.0746C113.682 15.0249 113.138 15 112.653 15C112.336 15 111.991 15.0124 111.617 15.0373C111.244 15.0622 110.999 15.0746 110.88 15.0746C110.669 15.0746 110.563 14.8383 110.563 14.3656V8.77694C110.563 7.96834 110.433 7.37745 110.171 7.00425C109.91 6.62483 109.568 6.43513 109.145 6.43513C108.71 6.43513 108.231 6.55953 107.708 6.80832C107.192 7.0509 106.707 7.3619 106.253 7.74132V12.6582C106.253 12.7515 106.256 12.8261 106.262 12.8821C106.274 12.9319 106.296 12.991 106.327 13.0594C106.365 13.1278 106.427 13.1807 106.514 13.218C106.601 13.2491 106.713 13.2646 106.85 13.2646C107.086 13.2646 107.288 13.302 107.456 13.3766C107.624 13.4512 107.708 13.5632 107.708 13.7125C107.708 14.4402 107.606 14.8943 107.4 15.0746C107.021 15.0249 106.309 15 105.264 15C104.219 15 103.463 15.0249 102.997 15.0746C102.791 14.888 102.689 14.434 102.689 13.7125C102.689 13.5632 102.773 13.4512 102.941 13.3766C103.109 13.302 103.311 13.2646 103.547 13.2646C103.79 13.2646 103.948 13.2149 104.023 13.1154C104.097 13.0096 104.135 12.8634 104.135 12.6768V7.66668C104.135 7.33702 104.038 7.10377 103.846 6.96693C103.659 6.83009 103.295 6.74923 102.754 6.72435C102.673 6.70569 102.62 6.66526 102.595 6.60306C102.577 6.54087 102.567 6.40714 102.567 6.20188C102.567 5.88466 102.602 5.60476 102.67 5.36218C102.738 5.11961 102.807 4.97966 102.875 4.94234C103.286 5.01076 103.687 5.04497 104.079 5.04497C104.359 5.04497 104.654 5.02942 104.965 4.99832C105.276 4.961 105.441 4.94234 105.46 4.94234C105.677 4.94234 105.817 4.99832 105.88 5.11028C105.948 5.21602 105.982 5.46481 105.982 5.85667C105.982 5.90021 105.979 5.98107 105.973 6.09925C105.973 6.21121 105.973 6.3014 105.973 6.36982C106.508 5.8971 107.114 5.51457 107.792 5.22224C108.47 4.9299 109.123 4.78373 109.751 4.78373C110.622 4.78373 111.328 5.09162 111.869 5.70739C112.41 6.32317 112.681 7.29037 112.681 8.609V12.6209C112.681 13.0252 112.837 13.2398 113.148 13.2646C113.21 13.2709 113.291 13.2771 113.39 13.2833C113.496 13.2895 113.577 13.2957 113.633 13.302C113.695 13.3082 113.77 13.3175 113.857 13.3299C113.944 13.3362 114.012 13.3455 114.062 13.3579C114.112 13.3642 114.168 13.3766 114.23 13.3953C114.298 13.4077 114.351 13.4232 114.388 13.4419C114.426 13.4606 114.46 13.4823 114.491 13.5072C114.528 13.5321 114.553 13.5632 114.566 13.6005C114.584 13.6316 114.594 13.6689 114.594 13.7125C114.594 14.434 114.491 14.888 114.286 15.0746ZM123.14 10.6709V8.2358C122.81 7.64491 122.375 7.18463 121.834 6.85497C121.293 6.52532 120.733 6.36049 120.154 6.36049C119.358 6.36049 118.686 6.67459 118.139 7.30281C117.598 7.9248 117.327 8.83292 117.327 10.0271C117.327 11.1716 117.62 12.0642 118.204 12.7048C118.789 13.3455 119.483 13.6658 120.285 13.6658C120.633 13.6658 120.975 13.6036 121.311 13.4792C121.647 13.3486 121.952 13.162 122.226 12.9194C122.499 12.6768 122.72 12.3627 122.888 11.9771C123.056 11.5852 123.14 11.1498 123.14 10.6709ZM125.258 2.42326V12.6582C125.258 12.7453 125.264 12.8199 125.276 12.8821C125.289 12.9381 125.314 13.0003 125.351 13.0687C125.395 13.1309 125.463 13.1807 125.556 13.218C125.65 13.2553 125.771 13.2771 125.92 13.2833C126.505 13.3082 126.797 13.4388 126.797 13.6752C126.797 14.4215 126.691 14.888 126.48 15.0746C126.138 15.0249 125.768 15 125.37 15C124.81 15 124.263 15.0249 123.728 15.0746C123.336 14.8943 123.14 14.462 123.14 13.7778V13.6938C122.804 14.1914 122.328 14.577 121.712 14.8507C121.097 15.1182 120.462 15.2519 119.809 15.2519C119.212 15.2519 118.64 15.1399 118.092 14.916C117.545 14.6921 117.047 14.3718 116.6 13.955C116.158 13.5321 115.803 12.9816 115.536 12.3037C115.269 11.6257 115.135 10.8668 115.135 10.0271C115.135 9.18745 115.275 8.42862 115.555 7.75065C115.835 7.07267 116.208 6.52532 116.674 6.10858C117.147 5.68562 117.673 5.36218 118.251 5.13827C118.829 4.91435 119.433 4.79928 120.061 4.79306H120.117C121.342 4.79306 122.35 5.25023 123.14 6.16456V3.72012C123.14 3.39046 123.043 3.15721 122.851 3.02037C122.664 2.88353 122.3 2.80267 121.759 2.77779C121.678 2.75913 121.625 2.7187 121.6 2.65651C121.582 2.59431 121.572 2.46058 121.572 2.25532C121.572 1.9381 121.607 1.6582 121.675 1.41562C121.743 1.17305 121.812 1.0331 121.88 0.995778C122.397 1.0642 122.891 1.09841 123.364 1.09841C123.644 1.09841 123.939 1.08286 124.25 1.05176C124.561 1.01444 124.726 0.995778 124.745 0.995778C124.962 0.995778 125.102 1.05176 125.164 1.16372C125.233 1.26946 125.267 1.51825 125.267 1.91011C125.267 1.95365 125.264 2.03451 125.258 2.15269C125.258 2.26465 125.258 2.35484 125.258 2.42326ZM135.922 12.5276C135.922 13.1558 135.729 13.6783 135.343 14.095C134.964 14.5055 134.46 14.801 133.832 14.9813C133.204 15.1617 132.46 15.2519 131.602 15.2519C130.283 15.2519 129.251 15.0622 128.505 14.6828C127.764 14.3034 127.394 13.7218 127.394 12.9381C127.394 12.0486 127.939 11.6039 129.027 11.6039C129.201 11.6039 129.316 11.6381 129.372 11.7065C129.428 11.775 129.456 11.9056 129.456 12.0984V13.3673C129.686 13.4917 130.025 13.5881 130.473 13.6565C130.927 13.7249 131.384 13.7591 131.845 13.7591C132.392 13.7591 132.843 13.6472 133.198 13.4232C133.558 13.1931 133.739 12.879 133.739 12.4809C133.739 12.201 133.648 11.9522 133.468 11.7345C133.288 11.5106 133.051 11.3302 132.759 11.1934C132.467 11.0566 132.131 10.9197 131.751 10.7829C131.378 10.6398 130.996 10.5092 130.604 10.391C130.218 10.2728 129.836 10.1236 129.456 9.94318C129.083 9.7628 128.75 9.56687 128.458 9.35539C128.166 9.14392 127.929 8.86713 127.749 8.52503C127.568 8.18293 127.478 7.7973 127.478 7.36812C127.478 6.81454 127.684 6.33561 128.094 5.93131C128.505 5.52701 129.005 5.23468 129.596 5.0543C130.193 4.87392 130.831 4.78373 131.509 4.78373C134.295 4.78373 135.689 5.59232 135.689 7.20951C135.689 7.30903 135.67 7.41477 135.633 7.52673C135.602 7.63869 135.536 7.76931 135.437 7.91858C135.343 8.06786 135.182 8.19226 134.952 8.29178C134.728 8.38508 134.451 8.43173 134.121 8.43173C134.059 8.43173 134.006 8.42551 133.963 8.41307C133.925 8.40063 133.894 8.38819 133.869 8.37575C133.851 8.35709 133.832 8.3291 133.813 8.29178C133.801 8.24824 133.792 8.21714 133.785 8.19848C133.785 8.17982 133.779 8.13939 133.767 8.07719C133.76 8.00877 133.757 7.96212 133.757 7.93724L133.627 6.63105C133.54 6.54398 133.269 6.44757 132.815 6.34183C132.367 6.23609 131.982 6.18322 131.658 6.18322C131.024 6.18322 130.551 6.3014 130.24 6.53776C129.935 6.77411 129.783 7.07267 129.783 7.43343C129.783 7.69467 129.895 7.9248 130.119 8.12384C130.349 8.32288 130.644 8.49393 131.005 8.63699C131.366 8.77383 131.764 8.91067 132.199 9.04751C132.635 9.18434 133.07 9.34917 133.505 9.54199C133.941 9.72859 134.339 9.94318 134.7 10.1858C135.06 10.4283 135.353 10.7518 135.577 11.1561C135.807 11.5541 135.922 12.0113 135.922 12.5276Z" fill="#8A91A8"/>
</svg>
