<svg width="32" height="32" viewBox="0 0 32 32" fill="none" xmlns="http://www.w3.org/2000/svg">
<path d="M22.5751 20.1243C22.2754 20.5882 22.4085 21.2072 22.8724 21.5069C23.3363 21.8066 23.9553 21.6735 24.255 21.2097L22.5751 20.1243ZM26.8393 17.2097C27.139 16.7458 27.0059 16.1268 26.542 15.827C26.0781 15.5273 25.4591 15.6604 25.1594 16.1243L26.8393 17.2097ZM25.1594 17.2097C25.4591 17.6735 26.0781 17.8066 26.542 17.5069C27.0059 17.2072 27.139 16.5882 26.8393 16.1243L25.1594 17.2097ZM24.255 12.1243C23.9553 11.6604 23.3363 11.5273 22.8724 11.827C22.4085 12.1268 22.2754 12.7458 22.5751 13.2097L24.255 12.1243ZM26.001 17.667C26.5533 17.667 27.001 17.2193 27.001 16.667C27.001 16.1147 26.5533 15.667 26.001 15.667L26.001 17.667ZM14.001 15.667C13.4487 15.667 13.001 16.1147 13.001 16.667C13.001 17.2193 13.4487 17.667 14.001 17.667L14.001 15.667ZM24.255 21.2097L26.8393 17.2097L25.1594 16.1243L22.5751 20.1243L24.255 21.2097ZM26.8393 16.1243L24.255 12.1243L22.5751 13.2097L25.1594 17.2097L26.8393 16.1243ZM26.001 15.667L14.001 15.667L14.001 17.667L26.001 17.667L26.001 15.667Z" fill="#C73944"/>
<path d="M19.334 7.33333C13.934 7.33333 19.585 7.33333 16.934 7.33333L12.134 7.33333C9.48302 7.33333 7.33398 9.72114 7.33398 12.6666L7.33398 20.6666C7.33398 23.6121 9.48302 25.9999 12.134 25.9999L16.934 25.9999C19.585 25.9999 12.734 26 19.334 25.9999" stroke="#C73944" stroke-width="2" stroke-linecap="round" stroke-linejoin="round"/>
</svg>
