<svg width="32" height="32" viewBox="0 0 32 32" fill="none" xmlns="http://www.w3.org/2000/svg">
<path fill-rule="evenodd" clip-rule="evenodd" d="M20 11.3332C20 11.7014 20.2985 11.9998 20.6667 11.9998C21.0349 11.9998 21.3333 11.7014 21.3333 11.3332C21.3333 10.965 21.0349 10.6665 20.6667 10.6665C20.2985 10.6665 20 10.965 20 11.3332Z" stroke="#537172" stroke-width="2" stroke-linecap="round" stroke-linejoin="round"/>
<path d="M24.3333 14.6665C24.3333 15.2188 24.781 15.6665 25.3333 15.6665C25.8856 15.6665 26.3333 15.2188 26.3333 14.6665H24.3333ZM6.66663 19.9998L7.66663 20.0012V19.9998H6.66663ZM6.92311 23.7854C7.25385 24.2277 7.88053 24.3181 8.32283 23.9874C8.76512 23.6566 8.85556 23.0299 8.52482 22.5876L6.92311 23.7854ZM26.3333 14.6665C26.3333 14.1142 25.8856 13.6665 25.3333 13.6665C24.781 13.6665 24.3333 14.1142 24.3333 14.6665H26.3333ZM12 25.3332V24.3332H11.9993L12 25.3332ZM8.52628 22.5896C8.19663 22.1465 7.57018 22.0545 7.12707 22.3842C6.68396 22.7138 6.59199 23.3403 6.92165 23.7834L8.52628 22.5896ZM26.005 15.4074C26.4141 15.0364 26.4451 14.404 26.0742 13.9948C25.7032 13.5857 25.0708 13.5547 24.6616 13.9256L26.005 15.4074ZM19.0666 20.3478L18.3949 19.6069L18.3882 19.6132L19.0666 20.3478ZM18.0525 20.6971L17.9704 21.6937H17.9704L18.0525 20.6971ZM17.1093 20.1865L17.8989 19.5728L17.8984 19.5723L17.1093 20.1865ZM14.4306 16.7452L15.2198 16.1309L15.2183 16.129L14.4306 16.7452ZM13.353 16.2336L13.3323 15.2339L13.353 16.2336ZM12.2973 16.7892L11.4849 16.206L11.4838 16.2076L12.2973 16.7892ZM6.91046 22.6049C6.58928 23.0542 6.69312 23.6788 7.14241 24C7.59169 24.3212 8.21628 24.2173 8.53747 23.7681L6.91046 22.6049ZM26.3333 14.6665V11.9998H24.3333V14.6665H26.3333ZM26.3333 11.9998C26.3333 8.50203 23.4978 5.6665 20 5.6665V7.6665C22.3932 7.6665 24.3333 9.6066 24.3333 11.9998H26.3333ZM20 5.6665H12V7.6665H20V5.6665ZM12 5.6665C8.50216 5.6665 5.66663 8.50203 5.66663 11.9998H7.66663C7.66663 9.6066 9.60673 7.6665 12 7.6665V5.6665ZM5.66663 11.9998V19.9998H7.66663V11.9998H5.66663ZM5.66663 19.9985C5.6648 21.3635 6.10568 22.6922 6.92311 23.7854L8.52482 22.5876C7.96651 21.841 7.66538 20.9335 7.66663 20.0012L5.66663 19.9985ZM24.3333 14.6665V19.9998H26.3333V14.6665H24.3333ZM24.3333 19.9998C24.3333 22.3931 22.3932 24.3332 20 24.3332V26.3332C23.4978 26.3332 26.3333 23.4976 26.3333 19.9998H24.3333ZM20 24.3332H12V26.3332H20V24.3332ZM11.9993 24.3332C10.631 24.334 9.34302 23.6874 8.52628 22.5896L6.92165 23.7834C8.11603 25.3888 9.99961 26.3344 12.0006 26.3332L11.9993 24.3332ZM24.6616 13.9256L18.395 19.607L19.7383 21.0887L26.005 15.4074L24.6616 13.9256ZM18.3882 19.6132C18.3196 19.6765 18.2277 19.7082 18.1347 19.7005L17.9704 21.6937C18.6214 21.7474 19.2651 21.5257 19.7451 21.0825L18.3882 19.6132ZM18.1347 19.7005C18.0417 19.6928 17.9561 19.6465 17.8989 19.5728L16.3197 20.8002C16.7206 21.316 17.3193 21.6401 17.9704 21.6937L18.1347 19.7005ZM17.8984 19.5723L15.2198 16.1309L13.6415 17.3594L16.3202 20.8007L17.8984 19.5723ZM15.2183 16.129C14.7656 15.5504 14.0669 15.2187 13.3323 15.2339L13.3736 17.2334C13.4785 17.2313 13.5783 17.2787 13.643 17.3613L15.2183 16.129ZM13.3323 15.2339C12.5978 15.249 11.9133 15.6092 11.4849 16.206L13.1097 17.3723C13.1709 17.2871 13.2687 17.2356 13.3736 17.2334L13.3323 15.2339ZM11.4838 16.2076L6.91046 22.6049L8.53747 23.7681L13.1108 17.3707L11.4838 16.2076Z" fill="#537172"/>
</svg>
