<svg width="32" height="32" viewBox="0 0 32 32" fill="none" xmlns="http://www.w3.org/2000/svg">
<path fill-rule="evenodd" clip-rule="evenodd" d="M6.99902 17.6667V15C6.99902 10.5817 10.5807 7 14.999 7H17.6657C22.084 7 25.6657 10.5817 25.6657 15V17.6667C25.6657 22.0849 22.084 25.6667 17.6657 25.6667H14.999C10.5807 25.6667 6.99902 22.0849 6.99902 17.6667Z" stroke="#0A0017" stroke-width="2" stroke-linecap="round" stroke-linejoin="round"/>
<path d="M13.666 13.1854C13.666 11.7321 14.866 10.9321 16.662 11.0001C17.9581 11.0451 18.9887 12.1032 18.9993 13.4001C19.062 14.6128 18.4873 15.7703 17.4833 16.4534C16.63 17.0001 16.1789 17.9984 16.3327 19.0001" stroke="#0A0017" stroke-width="2" stroke-linecap="round" stroke-linejoin="round"/>
<path d="M16.3327 22.3333C15.9651 22.3333 15.666 22.0343 15.666 21.6667C15.666 21.2991 15.9651 21 16.3327 21C16.7003 21 16.9993 21.2991 16.9993 21.6667C16.9993 22.0343 16.7003 22.3333 16.3327 22.3333Z" fill="#0A0017"/>
<path d="M16.3324 20.333C17.0687 20.333 17.6657 20.93 17.6657 21.6663C17.6657 22.4027 17.0687 22.9997 16.3324 22.9997C15.596 22.9997 14.999 22.4027 14.999 21.6663C14.999 20.93 15.596 20.333 16.3324 20.333Z" fill="#0A0017"/>
</svg>
