<svg width="32" height="32" viewBox="0 0 32 32" fill="none" xmlns="http://www.w3.org/2000/svg">
<path fill-rule="evenodd" clip-rule="evenodd" d="M18.7987 11.6867L16.3333 7L13.868 11.6867C13.6938 12.0291 13.4417 12.326 13.132 12.5533C12.8207 12.7818 12.4606 12.9348 12.08 13L7 13.996L10.5467 18.2373C11.0317 18.7689 11.2606 19.4857 11.1733 20.2L10.4987 25.6667L15.176 23.4C15.5368 23.2252 15.9324 23.1341 16.3333 23.1333C16.7095 23.1345 17.0799 23.2259 17.4133 23.4L22.2 25.5267L21.5253 20.1253C21.4401 19.4126 21.6693 18.6981 22.1533 18.168L25.6667 13.996L20.5867 13C20.2056 12.935 19.845 12.782 19.5333 12.5533C19.2241 12.3258 18.9724 12.029 18.7987 11.6867Z" stroke="#0A0017" stroke-width="2" stroke-linecap="round" stroke-linejoin="round"/>
</svg>
