<svg width="32" height="32" viewBox="0 0 32 32" fill="none" xmlns="http://www.w3.org/2000/svg">
<path fill-rule="evenodd" clip-rule="evenodd" d="M24.0094 26.1373V7.712C24.0154 6.99874 23.7379 6.31229 23.2378 5.80369C22.7377 5.29508 22.056 5.00599 21.3427 5H10.6761C9.9628 5.00599 9.28113 5.29508 8.78103 5.80369C8.28093 6.31229 8.00336 6.99874 8.0094 7.712V26.1373C7.94601 26.6693 8.20721 27.1876 8.67255 27.4531C9.13789 27.7187 9.71697 27.6799 10.1427 27.3547L15.2094 22.98C15.6661 22.5678 16.3607 22.5678 16.8174 22.98L21.8761 27.356C22.302 27.6815 22.8815 27.7202 23.347 27.4543C23.8125 27.1884 24.0734 26.6696 24.0094 26.1373Z" stroke="#0A0017" stroke-width="2" stroke-linecap="round" stroke-linejoin="round"/>
</svg>
